<!-- TODO: name colors change -->
<!--! Test icon -->
<svg width="208" height="208" viewBox="0 0 208 208" fill="none" xmlns="http://www.w3.org/2000/svg">
<rect width="208" height="208" rx="24" fill="#3A3A3A"/>
<path d="M125.623 93.7814C134.768 85.6965 150.408 90.2029 158.625 89.8052C162.714 89.6074 168.246 84.7175 169.133 79.119M125.623 93.7814C116.968 101.433 107.601 103.624 105.274 119.676M125.623 93.7814C127.299 103.341 125.575 121.903 105.274 119.676M105.274 119.676C105.142 120.586 105.032 121.54 104.947 122.542C103.916 134.658 110.61 141.271 115.89 143.624C117.869 144.507 120.001 143.451 121.709 142.119C128.488 136.833 142.946 133.221 146.076 134.291C146.662 134.491 146.595 135.216 146.368 135.792C144.154 141.42 137.097 150.614 135.392 153.647C135.076 154.209 135.117 154.844 135.351 155.445C137.163 160.113 142.602 170.809 141.91 170.836C139.181 170.836 139.657 171.631 131.042 171.366C124.169 171.155 120.849 166.441 118.576 163.063C117.611 161.629 115.996 160.822 114.272 160.711C70.8856 157.917 58.783 125.261 59.0189 100.757C59.0242 100.201 59.1334 99.5873 58.7561 99.1794C56.8118 97.0775 45.826 94.0433 40.1309 92.5264C38.0164 91.9632 37.3741 90.3964 38.3418 88.4339C41.985 81.0454 45.1475 73.9367 62.7804 69.5331C64.4818 69.1082 65.9605 67.9941 66.8421 66.4782C89.2303 27.9852 130.481 27.3328 149.955 61.5379C150.859 63.1258 152.388 64.2826 154.158 64.7352C166.677 67.9355 169.968 73.842 169.133 79.119M122.177 87.9991C118.853 96.6499 108.549 112.609 93.2645 109.732C92.1437 109.521 90.7888 109.189 90.7997 108.049C90.8071 107.273 91.0092 106.083 91.5605 104.301C92.939 99.8481 95.3158 91.9311 96.3319 88.5293M133.56 74.7452C142.829 77.6611 162.919 82.618 169.133 79.119" stroke="#528BFF" stroke-width="8.8958" stroke-linecap="round"/>
<circle cx="119.379" cy="65.335" r="5.48956" fill="#528BFF" stroke="#528BFF" stroke-width="0.684293"/>
</svg>
